<svg xmlns:mydata="http://www.w3.org/2000/svg" mydata:contrastcolor="ffffff" mydata:template="Default" mydata:presentation="2.5" mydata:layouttype="undefined" mydata:specialfontid="undefined" mydata:id1="132" mydata:id2="834" mydata:companyname="Forhub" mydata:companytagline="" version="1.1" xmlns="http://www.w3.org/2000/svg" xmlns:xlink="http://www.w3.org/1999/xlink" viewBox="0 0 550 470" style=""><defs style="animation-play-state: paused;"><linearGradient id="fade-smooth-gradient" gradientUnits="userSpaceOnUse" x2="0" y2="0" style="animation-play-state: paused;">
                <stop offset="0" stop-color="#FFFFFF" stop-opacity="1" style="animation-play-state: paused;"></stop>
                <stop offset="1" stop-color="#FFFFFF" stop-opacity="0" style="animation-play-state: paused;"></stop>
                <animate attributeName="x2" dur="2.5s" from="0" to="100%" values="0; 100%; 100%" repeatCount="indefinite" style="animation-play-state: paused;"></animate>
            </linearGradient>          
            <mask id="fade-smooth-mask" maskUnits="userSpaceOnUse" style="animation-play-state: paused;">
              <rect width="100%" height="100%" fill="url(#fade-smooth-gradient)" style="animation-play-state: paused;"></rect>
            </mask></defs><g fill="#101820" fill-rule="none" stroke="none" stroke-width="1" stroke-linecap="butt" stroke-linejoin="miter" stroke-miterlimit="10" stroke-dasharray="" stroke-dashoffset="0" font-family="none" font-weight="none" font-size="none" text-anchor="none" style="mix-blend-mode: normal; animation-play-state: paused;" mask="url(#fade-smooth-mask)"><g data-paper-data="{&quot;isGlobalGroup&quot;:true,&quot;bounds&quot;:{&quot;x&quot;:65,&quot;y&quot;:197.49808676924806,&quot;width&quot;:420,&quot;height&quot;:75.00382646150388}}" style="animation-play-state: paused;"><g data-paper-data="{&quot;isPrimaryText&quot;:true}" fill-rule="nonzero" style="animation-play-state: paused;"><path d="M178.05464,263.62533h7.76973v-26.66245h21.83704v-6.37936h-21.83704v-17.50235h26.17173v-6.70651h-33.94147z" data-paper-data="{&quot;glyphName&quot;:&quot;F&quot;,&quot;glyphIndex&quot;:0,&quot;firstGlyphOfWord&quot;:true,&quot;word&quot;:1}" style="animation-play-state: paused;"></path><path d="M215.26757,234.91821c0,16.35733 10.05976,29.68856 26.9896,29.68856c16.92984,0 27.07139,-13.33123 27.07139,-29.68856c0,-16.27555 -10.22333,-29.52499 -27.07139,-29.52499c-16.92984,0 -26.9896,12.75872 -26.9896,29.52499zM223.20088,234.91821c0,-12.92229 7.03365,-22.81848 19.05629,-22.81848c12.02264,0 19.13808,11.12299 19.13808,22.81848c0,13.08587 -6.54293,22.98205 -19.13808,22.98205c-12.02264,0 -19.05629,-11.12299 -19.05629,-22.98205z" data-paper-data="{&quot;glyphName&quot;:&quot;O&quot;,&quot;glyphIndex&quot;:1,&quot;word&quot;:1}" style="animation-play-state: paused;"></path><path d="M321.42667,261.17173l-6.21579,-13.41301c-3.35325,-7.19723 -6.05221,-9.8144 -10.46869,-11.77728c8.91475,-2.37181 13.82195,-7.11544 13.82195,-15.04875c0,-8.91475 -7.11544,-15.21232 -21.01917,-15.21232c-6.05221,0 -10.95941,0.24536 -16.76627,0.81787v57.08709h7.76973v-25.27208h1.2268c8.50581,0 13.65837,2.94432 17.25699,10.71405l7.11544,15.53947zM297.54496,212.26331c8.50581,0 13.24944,4.00755 13.24944,9.40547c0,6.54293 -5.39792,10.14155 -13.24944,10.14155h-8.99653v-19.21987c2.37181,-0.16357 5.31613,-0.32715 8.99653,-0.32715z" data-paper-data="{&quot;glyphName&quot;:&quot;R&quot;,&quot;glyphIndex&quot;:2,&quot;word&quot;:1}" style="animation-play-state: paused;"></path><path d="M367.2272,263.62533h7.76973v-57.25067h-7.76973v24.45421h-28.2164v-24.45421h-7.76973v57.25067h7.76973v-26.08995h28.2164z" data-paper-data="{&quot;glyphName&quot;:&quot;H&quot;,&quot;glyphIndex&quot;:3,&quot;word&quot;:1}" style="animation-play-state: paused;"></path><path d="M423.49643,240.64328c0,11.20477 -4.58005,17.1752 -13.82195,17.1752c-8.99653,0 -13.41301,-6.21579 -13.41301,-17.1752v-34.26861h-7.76973v35.49541c0,14.63981 7.93331,22.73669 21.18275,22.73669c12.84051,0 21.34632,-8.5876 21.34632,-23.06384v-35.16827h-7.52437z" data-paper-data="{&quot;glyphName&quot;:&quot;U&quot;,&quot;glyphIndex&quot;:4,&quot;word&quot;:1}" style="animation-play-state: paused;"></path><path d="M444.5156,263.46176c3.51683,0.49072 9.89619,0.81787 16.52091,0.81787c15.62125,0 23.96349,-6.62472 23.96349,-17.01163c0,-6.78829 -3.92576,-11.36835 -11.28656,-13.98552c6.134,-2.69896 9.40547,-6.78829 9.40547,-12.84051c0,-9.07832 -7.76973,-14.7216 -21.75525,-14.7216c-7.3608,0 -13.00408,0.40893 -16.84805,0.81787zM461.60901,257.81848c-3.27147,0 -6.46115,-0.16357 -9.32368,-0.49072v-20.20131h9.32368c9.89619,0 15.45768,3.92576 15.45768,10.46869c0,6.62472 -5.72507,10.22333 -15.45768,10.22333zM452.28533,231.07424v-18.64736c2.53539,-0.24536 5.39792,-0.40893 8.99653,-0.40893c8.66939,0 14.06731,3.27147 14.06731,9.40547c0,5.72507 -5.47971,9.65083 -14.06731,9.65083z" data-paper-data="{&quot;glyphName&quot;:&quot;B&quot;,&quot;glyphIndex&quot;:5,&quot;lastGlyphOfWord&quot;:true,&quot;word&quot;:1}" style="animation-play-state: paused;"></path></g><g data-paper-data="{&quot;isIcon&quot;:&quot;true&quot;,&quot;iconType&quot;:&quot;icon&quot;,&quot;rawIconId&quot;:&quot;1466731&quot;,&quot;selectedEffects&quot;:{&quot;container&quot;:&quot;&quot;,&quot;transformation&quot;:&quot;&quot;,&quot;pattern&quot;:&quot;&quot;},&quot;isDetailed&quot;:false,&quot;iconStyle&quot;:&quot;standalone&quot;,&quot;bounds&quot;:{&quot;x&quot;:65,&quot;y&quot;:197.49808676924806,&quot;width&quot;:75.00382646150388,&quot;height&quot;:75.00382646150388},&quot;fillRule&quot;:&quot;evenodd&quot;,&quot;suitableAsStandaloneIcon&quot;:true}" fill-rule="evenodd" style="animation-play-state: paused;"><path d="M71.25063,197.49809h62.50256c3.43611,0 6.25063,2.81452 6.25063,6.25063v62.50256c0,3.43611 -2.81452,6.25063 -6.25063,6.25063h-62.50256c-3.43611,0 -6.25063,-2.81452 -6.25063,-6.25063v-62.50256c0,-3.43611 2.81452,-6.25063 6.25063,-6.25063zM90.00159,247.50033h21.8758c12.08312,0 21.8758,-9.79269 21.8758,-21.87299c0,-12.08312 -9.79269,-21.87862 -21.8758,-21.87862h-21.8758v6.24969h21.8758c8.63107,0 15.62611,6.99786 15.62611,15.62892c0,8.62544 -6.99504,15.6233 -15.62611,15.6233h-21.8758zM93.12643,266.25128h21.8758v-6.24969h-21.8758c-8.63107,0 -15.62611,-6.99786 -15.62611,-15.63173c0,-8.62544 6.99504,-15.62048 15.62611,-15.62048h21.8758v-6.24969h-21.8758c-12.08312,0 -21.8758,9.78987 -21.8758,21.87018c0,12.08593 9.79269,21.88143 21.8758,21.88143z" data-paper-data="{&quot;isPathIcon&quot;:true}" style="animation-play-state: paused;"></path></g></g></g><g fill="#101820" fill-rule="none" stroke="none" stroke-width="1" stroke-linecap="butt" stroke-linejoin="miter" stroke-miterlimit="10" stroke-dasharray="" stroke-dashoffset="0" font-family="none" font-weight="none" font-size="none" text-anchor="none" style="mix-blend-mode: normal; animation-play-state: paused;" opacity="0"><g data-paper-data="{&quot;isGlobalGroup&quot;:true,&quot;bounds&quot;:{&quot;x&quot;:65,&quot;y&quot;:197.49808676924806,&quot;width&quot;:420,&quot;height&quot;:75.00382646150388}}" style="animation-play-state: paused;"><g data-paper-data="{&quot;isPrimaryText&quot;:true}" fill-rule="nonzero" style="animation-play-state: paused;"><path d="M178.05464,263.62533h7.76973v-26.66245h21.83704v-6.37936h-21.83704v-17.50235h26.17173v-6.70651h-33.94147z" data-paper-data="{&quot;glyphName&quot;:&quot;F&quot;,&quot;glyphIndex&quot;:0,&quot;firstGlyphOfWord&quot;:true,&quot;word&quot;:1}" style="animation-play-state: paused;"></path><path d="M215.26757,234.91821c0,16.35733 10.05976,29.68856 26.9896,29.68856c16.92984,0 27.07139,-13.33123 27.07139,-29.68856c0,-16.27555 -10.22333,-29.52499 -27.07139,-29.52499c-16.92984,0 -26.9896,12.75872 -26.9896,29.52499zM223.20088,234.91821c0,-12.92229 7.03365,-22.81848 19.05629,-22.81848c12.02264,0 19.13808,11.12299 19.13808,22.81848c0,13.08587 -6.54293,22.98205 -19.13808,22.98205c-12.02264,0 -19.05629,-11.12299 -19.05629,-22.98205z" data-paper-data="{&quot;glyphName&quot;:&quot;O&quot;,&quot;glyphIndex&quot;:1,&quot;word&quot;:1}" style="animation-play-state: paused;"></path><path d="M321.42667,261.17173l-6.21579,-13.41301c-3.35325,-7.19723 -6.05221,-9.8144 -10.46869,-11.77728c8.91475,-2.37181 13.82195,-7.11544 13.82195,-15.04875c0,-8.91475 -7.11544,-15.21232 -21.01917,-15.21232c-6.05221,0 -10.95941,0.24536 -16.76627,0.81787v57.08709h7.76973v-25.27208h1.2268c8.50581,0 13.65837,2.94432 17.25699,10.71405l7.11544,15.53947zM297.54496,212.26331c8.50581,0 13.24944,4.00755 13.24944,9.40547c0,6.54293 -5.39792,10.14155 -13.24944,10.14155h-8.99653v-19.21987c2.37181,-0.16357 5.31613,-0.32715 8.99653,-0.32715z" data-paper-data="{&quot;glyphName&quot;:&quot;R&quot;,&quot;glyphIndex&quot;:2,&quot;word&quot;:1}" style="animation-play-state: paused;"></path><path d="M367.2272,263.62533h7.76973v-57.25067h-7.76973v24.45421h-28.2164v-24.45421h-7.76973v57.25067h7.76973v-26.08995h28.2164z" data-paper-data="{&quot;glyphName&quot;:&quot;H&quot;,&quot;glyphIndex&quot;:3,&quot;word&quot;:1}" style="animation-play-state: paused;"></path><path d="M423.49643,240.64328c0,11.20477 -4.58005,17.1752 -13.82195,17.1752c-8.99653,0 -13.41301,-6.21579 -13.41301,-17.1752v-34.26861h-7.76973v35.49541c0,14.63981 7.93331,22.73669 21.18275,22.73669c12.84051,0 21.34632,-8.5876 21.34632,-23.06384v-35.16827h-7.52437z" data-paper-data="{&quot;glyphName&quot;:&quot;U&quot;,&quot;glyphIndex&quot;:4,&quot;word&quot;:1}" style="animation-play-state: paused;"></path><path d="M444.5156,263.46176c3.51683,0.49072 9.89619,0.81787 16.52091,0.81787c15.62125,0 23.96349,-6.62472 23.96349,-17.01163c0,-6.78829 -3.92576,-11.36835 -11.28656,-13.98552c6.134,-2.69896 9.40547,-6.78829 9.40547,-12.84051c0,-9.07832 -7.76973,-14.7216 -21.75525,-14.7216c-7.3608,0 -13.00408,0.40893 -16.84805,0.81787zM461.60901,257.81848c-3.27147,0 -6.46115,-0.16357 -9.32368,-0.49072v-20.20131h9.32368c9.89619,0 15.45768,3.92576 15.45768,10.46869c0,6.62472 -5.72507,10.22333 -15.45768,10.22333zM452.28533,231.07424v-18.64736c2.53539,-0.24536 5.39792,-0.40893 8.99653,-0.40893c8.66939,0 14.06731,3.27147 14.06731,9.40547c0,5.72507 -5.47971,9.65083 -14.06731,9.65083z" data-paper-data="{&quot;glyphName&quot;:&quot;B&quot;,&quot;glyphIndex&quot;:5,&quot;lastGlyphOfWord&quot;:true,&quot;word&quot;:1}" style="animation-play-state: paused;"></path></g><g data-paper-data="{&quot;isIcon&quot;:&quot;true&quot;,&quot;iconType&quot;:&quot;icon&quot;,&quot;rawIconId&quot;:&quot;1466731&quot;,&quot;selectedEffects&quot;:{&quot;container&quot;:&quot;&quot;,&quot;transformation&quot;:&quot;&quot;,&quot;pattern&quot;:&quot;&quot;},&quot;isDetailed&quot;:false,&quot;iconStyle&quot;:&quot;standalone&quot;,&quot;bounds&quot;:{&quot;x&quot;:65,&quot;y&quot;:197.49808676924806,&quot;width&quot;:75.00382646150388,&quot;height&quot;:75.00382646150388},&quot;fillRule&quot;:&quot;evenodd&quot;,&quot;suitableAsStandaloneIcon&quot;:true}" fill-rule="evenodd" style="animation-play-state: paused;"><path d="M71.25063,197.49809h62.50256c3.43611,0 6.25063,2.81452 6.25063,6.25063v62.50256c0,3.43611 -2.81452,6.25063 -6.25063,6.25063h-62.50256c-3.43611,0 -6.25063,-2.81452 -6.25063,-6.25063v-62.50256c0,-3.43611 2.81452,-6.25063 6.25063,-6.25063zM90.00159,247.50033h21.8758c12.08312,0 21.8758,-9.79269 21.8758,-21.87299c0,-12.08312 -9.79269,-21.87862 -21.8758,-21.87862h-21.8758v6.24969h21.8758c8.63107,0 15.62611,6.99786 15.62611,15.62892c0,8.62544 -6.99504,15.6233 -15.62611,15.6233h-21.8758zM93.12643,266.25128h21.8758v-6.24969h-21.8758c-8.63107,0 -15.62611,-6.99786 -15.62611,-15.63173c0,-8.62544 6.99504,-15.62048 15.62611,-15.62048h21.8758v-6.24969h-21.8758c-12.08312,0 -21.8758,9.78987 -21.8758,21.87018c0,12.08593 9.79269,21.88143 21.8758,21.88143z" data-paper-data="{&quot;isPathIcon&quot;:true}" style="animation-play-state: paused;"></path></g></g><animate attributeName="opacity" dur="2.5s" from="0" to="1" values="0; 0; 1" repeatCount="indefinite" style="animation-play-state: paused;"></animate></g></svg>