<svg width="14" height="15" viewBox="0 0 14 15" fill="none" xmlns="http://www.w3.org/2000/svg">
<path fill-rule="evenodd" clip-rule="evenodd" d="M11.2424 14.1667C10.3297 14.1667 9.53477 12.7795 9.1212 10.73C8.70767 12.7795 7.91273 14.1667 7 14.1667C6.08727 14.1667 5.29233 12.7795 4.8788 10.73C4.46523 12.7795 3.6703 14.1667 2.75757 14.1667C1.4187 14.1667 0.333333 11.1819 0.333333 7.5C0.333333 3.8181 1.4187 0.833333 2.75757 0.833333C3.6703 0.833333 4.46523 2.22048 4.8788 4.27C5.29233 2.22048 6.08727 0.833333 7 0.833333C7.91273 0.833333 8.70767 2.22048 9.1212 4.27C9.53477 2.22048 10.3297 0.833333 11.2424 0.833333C12.5813 0.833333 13.6667 3.8181 13.6667 7.5C13.6667 11.1819 12.5813 14.1667 11.2424 14.1667Z" fill="#121417"/>
</svg>
